<svg width="16" height="16" viewBox="0 0 16 16" fill="none" xmlns="http://www.w3.org/2000/svg">
<g id="icon" clip-path="url(#clip0_43_6815)">
<path id="Icon" fill-rule="evenodd" clip-rule="evenodd" d="M8 -0.5C8.55229 -0.5 9 -0.0522848 9 0.5V7H15.5C16.0523 7 16.5 7.44772 16.5 8C16.5 8.55229 16.0523 9 15.5 9H9V15.5C9 16.0523 8.55229 16.5 8 16.5C7.44772 16.5 7 16.0523 7 15.5V9H0.5C-0.0522848 9 -0.5 8.55229 -0.5 8C-0.5 7.44772 -0.0522848 7 0.5 7H7V0.5C7 -0.0522848 7.44772 -0.5 8 -0.5Z" fill="#C4C9D4"/>
</g>
<defs>
<clipPath id="clip0_43_6815">
<rect width="16" height="16" fill="white"/>
</clipPath>
</defs>
</svg>
