<svg width="24" height="24" viewBox="0 0 24 24" fill="none" xmlns="http://www.w3.org/2000/svg">
<rect width="24" height="24" rx="2" fill="white"/>
<path d="M12 8.25049C11.3096 8.25049 10.75 7.69084 10.75 7.00049C10.75 6.31013 11.3096 5.75049 12 5.75049C12.6904 5.75049 13.25 6.31013 13.25 7.00049C13.25 7.69084 12.6904 8.25049 12 8.25049ZM12 13.2505C11.3096 13.2505 10.75 12.6908 10.75 12.0005C10.75 11.3101 11.3096 10.7505 12 10.7505C12.6904 10.7505 13.25 11.3101 13.25 12.0005C13.25 12.6908 12.6904 13.2505 12 13.2505ZM10.75 17.0005C10.75 17.6908 11.3096 18.2505 12 18.2505C12.6904 18.2505 13.25 17.6908 13.25 17.0005C13.25 16.3101 12.6904 15.7505 12 15.7505C11.3096 15.7505 10.75 16.3101 10.75 17.0005Z" fill="#61646B"/>
</svg>
